<svg width="169" height="176" viewBox="0 0 169 176" fill="none" xmlns="http://www.w3.org/2000/svg">
<mask id="mask0_175_2100" style="mask-type:alpha" maskUnits="userSpaceOnUse" x="0" y="0" width="169" height="176">
<path d="M34.2737 173C64.2738 138.477 65.3327 94.3988 67.8033 66.349C67.8033 66.349 74.1563 96.5565 84.3916 123.682C94.627 96.5565 100.98 66.349 100.98 66.349C103.451 94.3988 104.509 138.477 134.51 173" stroke="black" stroke-opacity="0.8" stroke-width="5" stroke-linecap="round" stroke-linejoin="round"/>
<path d="M45.1577 116.066C29.5213 129.698 1.55052 113.259 3.05858 81.5849C4.1276 59.1319 28.7187 41.0896 50.7706 53.118C50.7706 53.118 35.535 5.8066 84.4501 3C133.365 5.8066 118.531 53.118 118.531 53.118C140.583 41.0896 165.174 59.1319 166.243 81.5849C167.751 113.259 139.78 129.698 124.144 116.066" stroke="black" stroke-opacity="0.8" stroke-width="5" stroke-linecap="round" stroke-linejoin="round"/>
</mask>
<g mask="url(#mask0_175_2100)">
<path d="M34.3323 204.675C64.3324 159.769 65.3913 102.434 67.8619 65.9481C67.8619 65.9481 74.2148 105.241 84.4502 140.524C94.6856 105.241 101.039 65.9481 101.039 65.9481C103.509 102.434 104.568 159.769 134.568 204.675" stroke="black" stroke-opacity="0.8" stroke-width="5" stroke-linecap="round" stroke-linejoin="round"/>
<path d="M45.1577 116.066C29.5213 129.698 1.55052 113.259 3.05858 81.5849C4.1276 59.1319 28.7187 41.0896 50.7706 53.118C50.7706 53.118 35.535 5.8066 84.4501 3C133.365 5.8066 118.531 53.118 118.531 53.118C140.583 41.0896 165.174 59.1319 166.243 81.5849C167.751 113.259 139.78 129.698 124.144 116.066" stroke="black" stroke-opacity="0.8" stroke-width="5" stroke-linecap="round" stroke-linejoin="round"/>
<rect x="-8.22632" y="-9.02832" width="189.245" height="200.472" fill="#379A85"/>
</g>
</svg>
